<svg width="52" height="52" viewBox="0 0 52 52" fill="none" xmlns="http://www.w3.org/2000/svg">
<path d="M52 26C52 31.1423 50.4751 36.1691 47.6182 40.4448C44.7613 44.7205 40.7006 48.053 35.9498 50.0209C31.1989 51.9887 25.9712 52.5036 20.9277 51.5004C15.8841 50.4972 11.2514 48.0209 7.61522 44.3848C3.97906 40.7486 1.5028 36.1159 0.499583 31.0723C-0.503633 26.0288 0.0112537 20.8011 1.97913 16.0502C3.94701 11.2994 7.2795 7.23871 11.5552 4.38179C15.8309 1.52487 20.8577 -6.13215e-08 26 0V1.65901C21.1858 1.65901 16.4797 3.08658 12.4769 5.7612C8.47401 8.43583 5.35417 12.2374 3.51186 16.6851C1.66954 21.1328 1.18751 26.027 2.12671 30.7487C3.06592 35.4704 5.38417 39.8075 8.78832 43.2117C12.1925 46.6158 16.5296 48.9341 21.2513 49.8733C25.973 50.8125 30.8672 50.3305 35.3149 48.4881C39.7626 46.6458 43.5642 43.526 46.2388 39.5231C48.9134 35.5203 50.341 30.8142 50.341 26H52Z" fill="#877F72"/>
</svg>
